<?xml version="1.0" standalone="no"?>
<!DOCTYPE svg PUBLIC "-//W3C//DTD SVG 20010904//EN"
 "http://www.w3.org/TR/2001/REC-SVG-20010904/DTD/svg10.dtd">
<svg version="1.0" xmlns="http://www.w3.org/2000/svg"
 width="1024.000000pt" height="1024.000000pt" viewBox="0 0 1024.000000 1024.000000"
 preserveAspectRatio="xMidYMid meet">
<metadata>
Created by potrace 1.14, written by Peter Selinger 2001-2017
</metadata>
<g transform="translate(0.000000,1024.000000) scale(0.100000,-0.100000)"
fill="#000000" stroke="none">
<path d="M4638 9925 c-2 -2 -43 -6 -93 -9 -93 -7 -127 -10 -255 -26 -138 -17
-175 -22 -195 -26 -11 -2 -36 -6 -55 -9 -38 -5 -45 -7 -160 -30 -41 -8 -84
-17 -95 -19 -140 -28 -457 -119 -632 -182 -293 -105 -597 -247 -823 -382 -19
-12 -48 -29 -65 -38 -16 -9 -82 -51 -145 -92 -705 -463 -1242 -1100 -1522
-1807 -56 -142 -122 -342 -133 -405 -1 -3 -4 -14 -8 -25 -3 -11 -8 -31 -11
-45 -35 -177 -43 -210 -49 -203 -5 4 -5 0 -2 -9 3 -8 1 -51 -4 -94 -23 -168
-32 -302 -32 -474 0 -69 1 -127 1 -130 2 -6 7 -56 14 -140 10 -113 23 -225 26
-225 1 0 4 -13 6 -30 2 -16 9 -50 14 -75 6 -25 12 -54 14 -65 3 -11 9 -42 15
-68 6 -27 8 -53 5 -59 -4 -7 -2 -8 4 -4 8 4 12 -1 13 -13 2 -24 3 -30 12 -51
4 -8 8 -27 11 -42 2 -14 10 -36 16 -48 6 -12 9 -28 6 -36 -3 -8 -2 -14 3 -14
4 0 13 -19 20 -42 7 -24 16 -52 21 -63 51 -117 113 -272 113 -282 0 -7 2 -11
5 -9 5 6 52 -85 52 -101 0 -7 5 -13 11 -13 6 0 9 -9 6 -20 -3 -11 -1 -18 3
-15 5 3 17 -12 27 -32 9 -21 28 -53 41 -72 12 -19 20 -41 17 -48 -2 -8 -1 -12
4 -9 7 5 71 -86 71 -100 0 -3 7 -12 15 -21 8 -8 12 -20 8 -26 -3 -7 -3 -9 2
-5 9 8 102 -121 97 -135 -1 -5 2 -6 8 -2 9 6 14 -8 11 -28 -1 -5 3 -6 8 -2 12
7 33 -29 23 -40 -4 -5 -2 -5 4 -2 7 4 24 -12 40 -36 16 -23 36 -49 45 -57 9
-8 40 -44 70 -80 30 -36 63 -73 74 -84 11 -10 19 -22 18 -27 -2 -5 2 -9 7 -9
16 0 51 -40 45 -51 -4 -5 -2 -8 3 -7 6 2 46 -31 89 -72 78 -73 208 -190 223
-200 4 -3 11 -25 15 -50 4 -25 9 -54 11 -65 6 -31 17 -176 17 -220 0 -47 -12
-204 -17 -231 -42 -205 -103 -351 -204 -493 -46 -65 -167 -193 -232 -245 -111
-90 -309 -201 -459 -257 -79 -30 -121 -67 -121 -106 0 -32 19 -56 77 -100 21
-15 41 -32 44 -36 3 -5 8 -8 10 -7 7 3 59 -23 59 -30 0 -4 6 -7 13 -7 6 -1 44
-8 82 -17 39 -8 90 -17 115 -20 39 -4 276 -9 290 -6 3 1 33 3 68 5 34 2 66 7
71 10 5 3 12 -1 14 -7 4 -10 6 -9 6 1 1 11 4 11 18 0 11 -10 14 -10 9 -2 -5 9
2 13 26 14 18 0 42 2 53 4 11 2 38 6 60 9 43 6 88 13 120 19 11 3 40 8 65 13
25 4 47 8 50 9 18 5 88 19 100 20 9 0 20 4 26 8 6 3 25 9 42 12 17 3 43 10 57
15 19 7 24 7 19 -1 -3 -6 5 -4 19 5 13 9 29 16 33 15 5 -1 22 3 38 10 16 6 35
10 43 7 7 -3 13 -2 13 3 0 7 37 21 60 23 3 0 16 4 29 9 16 7 29 5 40 -3 14
-11 14 -11 3 3 -15 19 -3 27 35 24 12 -1 20 1 18 5 -5 7 179 81 207 83 9 1 15
4 12 8 -5 9 25 21 37 13 5 -3 9 0 9 6 0 6 4 9 9 6 5 -4 11 -3 13 1 4 11 160
89 170 85 4 -1 8 2 8 7 0 5 10 13 23 17 12 3 30 13 40 22 9 8 17 11 17 6 0 -5
4 -4 8 1 8 11 88 65 97 65 3 0 16 9 28 20 12 11 27 18 34 16 7 -3 12 -1 10 3
-1 5 30 33 68 62 39 29 73 57 77 63 4 6 8 8 8 5 0 -3 23 16 51 43 28 26 55 45
61 42 6 -4 9 -3 5 2 -8 13 87 114 107 114 10 0 15 -3 13 -7 -3 -5 16 -9 41
-10 25 -1 48 -6 51 -10 3 -4 15 -8 26 -8 11 1 43 -5 70 -12 53 -13 99 -21 128
-22 10 -1 16 -4 13 -9 -2 -4 14 -6 37 -4 27 2 37 0 29 -6 -9 -6 -2 -8 22 -7
19 1 68 -3 109 -11 73 -12 133 -19 257 -30 55 -4 68 -9 86 -32 12 -15 22 -30
23 -34 2 -7 13 -19 143 -156 36 -39 64 -73 62 -76 -2 -3 -1 -4 2 -1 9 6 120
-96 116 -107 -1 -4 2 -7 7 -6 15 5 72 -43 65 -54 -4 -7 -3 -8 5 -4 6 4 30 -8
54 -27 23 -19 70 -53 103 -75 34 -23 69 -48 77 -56 8 -8 17 -12 21 -9 3 3 8
-2 12 -11 3 -9 10 -14 14 -11 4 3 18 -4 31 -14 13 -10 41 -26 62 -36 20 -9 37
-21 37 -26 0 -5 9 -9 20 -9 11 0 20 -5 20 -11 0 -5 5 -7 10 -4 6 3 10 -2 11
-12 0 -10 3 -13 5 -7 4 9 11 9 29 0 14 -6 25 -14 25 -18 0 -5 9 -8 20 -8 11 0
20 -4 20 -10 0 -5 6 -10 14 -10 8 0 45 -14 82 -31 96 -43 99 -44 194 -77 182
-64 207 -72 229 -72 12 0 19 -4 16 -10 -3 -6 1 -7 9 -4 9 3 16 1 16 -5 0 -6 7
-8 15 -5 8 3 19 2 26 -2 7 -4 30 -9 52 -11 21 -2 44 -6 50 -10 6 -4 27 -8 47
-10 19 -2 37 -8 38 -14 2 -5 7 -7 11 -5 4 3 36 1 72 -5 35 -5 84 -12 109 -15
25 -3 56 -7 70 -10 28 -5 191 -15 285 -18 33 -1 66 -5 73 -9 6 -5 12 -4 12 2
0 10 18 10 36 -2 6 -3 14 -3 18 1 11 11 60 9 68 -3 5 -6 8 -5 8 4 0 11 3 11
17 0 11 -10 14 -10 9 -1 -5 9 9 12 61 13 37 0 76 2 86 4 9 2 17 -2 17 -8 0 -9
2 -9 8 0 7 11 127 27 204 28 20 0 34 2 32 5 -7 6 107 28 134 25 12 -1 22 2 22
6 0 5 8 9 18 9 10 0 42 6 72 14 46 12 55 12 67 0 8 -8 11 -18 8 -24 -4 -6 -3
-9 2 -8 13 4 53 -26 53 -39 0 -7 4 -12 9 -11 5 2 22 -11 39 -29 17 -17 33 -29
36 -26 3 3 8 -2 12 -11 3 -9 12 -16 19 -16 6 0 25 -12 42 -27 16 -16 36 -29
44 -31 7 -2 16 -7 19 -11 3 -4 41 -27 85 -50 44 -24 90 -50 102 -58 13 -9 23
-12 23 -9 0 3 21 -5 48 -18 26 -14 59 -28 75 -32 15 -3 27 -11 27 -17 0 -6 3
-8 6 -4 4 3 22 0 40 -8 19 -8 34 -11 34 -8 0 3 6 0 14 -6 8 -7 27 -14 43 -17
15 -2 44 -11 63 -18 19 -8 40 -14 45 -15 55 -8 85 -15 85 -20 0 -3 19 -7 43
-9 23 -1 43 -6 45 -11 1 -4 14 -6 29 -3 14 3 23 1 20 -4 -3 -5 11 -10 31 -10
21 -1 69 -5 107 -9 39 -5 82 -9 98 -9 15 -1 27 -4 27 -8 0 -7 26 -5 34 3 3 2
36 2 75 -1 45 -3 71 -1 71 5 0 5 5 3 10 -5 8 -12 10 -12 10 -1 0 11 3 11 17 0
11 -10 14 -10 9 -1 -5 8 1 12 21 13 42 1 61 6 101 25 20 9 43 17 50 17 6 0 10
2 8 5 -3 2 11 17 30 34 19 17 34 38 34 47 0 23 -36 54 -80 71 -67 25 -195 92
-245 128 -218 158 -319 348 -332 626 -5 95 -3 120 8 127 11 7 11 9 1 9 -7 0
-10 5 -6 11 4 7 8 28 10 47 2 26 14 44 46 73 24 21 51 46 61 56 11 10 23 17
29 15 5 -1 7 1 4 6 -7 12 61 75 73 67 6 -3 9 0 6 8 -3 7 7 25 22 38 15 14 41
42 57 62 15 20 33 34 39 30 5 -3 7 -1 3 5 -3 6 7 25 24 43 16 19 30 37 30 42
0 4 6 5 13 1 6 -4 9 -4 5 1 -6 6 34 75 67 112 27 32 35 43 35 47 0 16 68 115
75 108 5 -4 5 -2 2 5 -9 14 37 96 48 86 4 -5 5 -3 2 3 -4 7 10 47 30 90 20 44
37 81 38 84 3 10 17 45 25 65 10 23 43 125 46 140 1 6 11 44 22 85 11 41 22
91 26 110 3 19 8 51 11 70 15 84 17 115 20 295 5 276 -29 491 -116 735 -68
192 -197 429 -323 597 l-82 108 14 48 c7 26 17 47 22 47 5 0 7 6 4 13 -3 8 1
27 7 43 7 16 11 35 10 42 -1 6 2 12 6 12 5 0 9 8 10 18 0 9 12 67 26 127 15
61 29 124 31 140 3 17 8 41 11 55 5 25 15 87 20 131 27 206 27 664 1 829 -3
14 -7 43 -10 65 -2 22 -9 60 -15 85 -5 25 -12 63 -16 85 -29 192 -143 534
-261 785 -75 157 -263 478 -286 488 -5 2 -8 8 -8 13 0 17 -180 247 -300 384
-42 47 -260 265 -316 315 -86 77 -215 181 -324 262 -160 118 -282 196 -500
322 -138 80 -468 232 -643 297 -72 27 -303 107 -317 110 -3 1 -9 3 -15 5 -25
8 -234 63 -265 70 -19 4 -39 9 -45 10 -68 17 -213 47 -305 63 -127 22 -145 25
-315 46 -16 2 -66 7 -110 10 -44 4 -96 9 -115 12 -37 5 -697 13 -702 8z"/>
</g>
</svg>
